<svg width="414" height="896" viewBox="0 0 414 896" fill="none" xmlns="http://www.w3.org/2000/svg">
<path fill-rule="evenodd" clip-rule="evenodd" d="M415.867 177.229C441.476 161.692 459 130.144 459 93.7536C459 41.9749 423.521 0 379.756 0C353.159 0 329.622 15.5027 315.249 39.2871C310.406 37.6601 305.294 36.7893 300.011 36.7893C280.671 36.7893 263.634 48.457 253.655 66.1675C246.329 56.8552 235.879 51.0305 224.278 51.0305C208.595 51.0305 195.014 61.6751 188.415 77.1906C177.441 69.6131 164.675 65.2714 151.053 65.2714C126.201 65.2714 104.202 79.7202 90.7297 101.905C86.3026 100.459 81.6395 99.6874 76.824 99.6874C68.6385 99.6874 60.8934 101.918 53.9993 105.894C46.4013 90.1358 32.0672 79.5126 15.6358 79.5126C-8.73973 79.5126 -28.5 102.891 -28.5 131.73C-28.5 154.317 -16.3779 173.555 0.589478 180.834V896H415.867V177.229ZM250.818 134.103H251.083C251.055 134.04 251.026 133.978 250.997 133.915C250.937 133.978 250.878 134.041 250.818 134.103Z" fill="url(#paint0_linear_97_377)"/>
<defs>
<linearGradient id="paint0_linear_97_377" x1="208.228" y1="37.9762" x2="208.228" y2="647.375" gradientUnits="userSpaceOnUse">
<stop stop-color="#FAF8F5"/>
<stop offset="1" stop-color="white" stop-opacity="0"/>
</linearGradient>
</defs>
</svg>
